<svg xmlns="http://www.w3.org/2000/svg" xmlns:xlink="http://www.w3.org/1999/xlink" width="819.999" height="690" viewBox="0 0 819.999 690">
  <defs>
    <filter id="Shape" x="0" y="0" width="819.999" height="690" filterUnits="userSpaceOnUse">
      <feOffset dy="20" input="SourceAlpha"/>
      <feGaussianBlur stdDeviation="20" result="blur"/>
      <feFlood flood-opacity="0.102"/>
      <feComposite operator="in" in2="blur"/>
      <feComposite in="SourceGraphic"/>
    </filter>
    <filter id="Rectangle-path" x="328.12" y="397.62" width="273.13" height="163.85" filterUnits="userSpaceOnUse">
      <feOffset dy="20" input="SourceAlpha"/>
      <feGaussianBlur stdDeviation="20" result="blur-2"/>
      <feFlood flood-opacity="0.102"/>
      <feComposite operator="in" in2="blur-2"/>
      <feComposite in="SourceGraphic"/>
    </filter>
    <filter id="Rectangle-path-2" x="328.12" y="309.92" width="316.88" height="163.85" filterUnits="userSpaceOnUse">
      <feOffset dy="20" input="SourceAlpha"/>
      <feGaussianBlur stdDeviation="20" result="blur-3"/>
      <feFlood flood-opacity="0.102"/>
      <feComposite operator="in" in2="blur-3"/>
      <feComposite in="SourceGraphic"/>
    </filter>
    <filter id="Rectangle-path-3" x="328.12" y="222.23" width="316.88" height="163.85" filterUnits="userSpaceOnUse">
      <feOffset dy="20" input="SourceAlpha"/>
      <feGaussianBlur stdDeviation="20" result="blur-4"/>
      <feFlood flood-opacity="0.102"/>
      <feComposite operator="in" in2="blur-4"/>
      <feComposite in="SourceGraphic"/>
    </filter>
    <filter id="Rectangle-path-4" x="87.5" y="222.23" width="316.88" height="339.23" filterUnits="userSpaceOnUse">
      <feOffset dy="20" input="SourceAlpha"/>
      <feGaussianBlur stdDeviation="20" result="blur-5"/>
      <feFlood flood-opacity="0.102"/>
      <feComposite operator="in" in2="blur-5"/>
      <feComposite in="SourceGraphic"/>
    </filter>
    <filter id="DECO_NEWS" x="85" y="92" width="565" height="216" filterUnits="userSpaceOnUse">
      <feOffset dy="20" input="SourceAlpha"/>
      <feGaussianBlur stdDeviation="20" result="blur-6"/>
      <feFlood flood-opacity="0.102"/>
      <feComposite operator="in" in2="blur-6"/>
      <feComposite in="SourceGraphic"/>
    </filter>
  </defs>
  <g id="folded-newspaper" transform="translate(-102 -187)">
    <g transform="matrix(1, 0, 0, 1, 102, 187)" filter="url(#Shape)">
      <path id="Shape-2" data-name="Shape" d="M796.375,797H249.5a105.14,105.14,0,0,1-28.882-3.768,77.223,77.223,0,0,1-21.7-9.934c-10.886-7.274-19.626-17.416-25.977-30.144a101.108,101.108,0,0,1-6.323-16.1,114.886,114.886,0,0,1-3.247-14.044,93.447,93.447,0,0,1-1.367-13.7V227H774.5v87.692H862V709.307a135.838,135.838,0,0,1-2.82,28.555,91.072,91.072,0,0,1-7.434,21.569,66.755,66.755,0,0,1-34.607,32.586,70.164,70.164,0,0,1-10.51,3.422A53.778,53.778,0,0,1,796.375,797ZM205.75,270.846V709.307a46.729,46.729,0,0,0,.684,6.851,54.377,54.377,0,0,0,4.785,15.072A38.353,38.353,0,0,0,224.207,746.3c6.8,4.546,15.314,6.851,25.293,6.851H745.538c-9.813-11.063-14.788-25.816-14.788-43.846V270.846Z" transform="translate(-102 -187)" fill="#13d390"/>
    </g>
    <g transform="matrix(1, 0, 0, 1, 102, 187)" filter="url(#Rectangle-path)">
      <rect id="Rectangle-path-5" data-name="Rectangle-path" width="153.13" height="43.85" transform="translate(388.12 437.62)" fill="#13d390"/>
    </g>
    <g transform="matrix(1, 0, 0, 1, 102, 187)" filter="url(#Rectangle-path-2)">
      <rect id="Rectangle-path-6" data-name="Rectangle-path" width="196.88" height="43.85" transform="translate(388.12 349.92)" fill="#13d390"/>
    </g>
    <g transform="matrix(1, 0, 0, 1, 102, 187)" filter="url(#Rectangle-path-3)">
      <rect id="Rectangle-path-7" data-name="Rectangle-path" width="196.88" height="43.85" transform="translate(388.12 262.23)" fill="#13d390"/>
    </g>
    <g transform="matrix(1, 0, 0, 1, 102, 187)" filter="url(#Rectangle-path-4)">
      <rect id="Rectangle-path-8" data-name="Rectangle-path" width="196.88" height="219.23" transform="translate(147.5 262.23)" fill="#13d390"/>
    </g>
    <g transform="matrix(1, 0, 0, 1, 102, 187)" filter="url(#DECO_NEWS)">
      <text id="DECO_NEWS-2" data-name="DECO NEWS" transform="translate(145 208)" fill="#13d390" font-size="80" font-family="Roboto-Black, Roboto" font-weight="800"><tspan x="0" y="0">DECO NEWS</tspan></text>
    </g>
  </g>
</svg>
